# xmcd
#
# Track frame offsets:
# 150
# 18169
# 35916
# 56792
# 78888
# 95365
# 112828
# 134962
#
# Disc length: 2066 seconds
#
# Revision: 0
# Processed by: cddbd v1.5.2PL0 Copyright (c) Steve Scherf et al.
# Submitted via: Axialis_AX_CDPlayer 2.6
#
DISCID=66081008
DTITLE=Taylor Swift - Speak Now (Deluxe Edition - Disc 2 of 2)
DYEAR=1900
DGENRE=
TTITLE0=Ours
TTITLE1=If This Was a Movie
TTITLE2=Superman
TTITLE3=Back to December (Acoustic Version)
TTITLE4=Haunted (Acoustic Version)
TTITLE5=Mine (US Version)
TTITLE6=Back to December (US Version)
TTITLE7=The Story of Us (US Version)
EXTD=www.taylorswift.com and www.myspace.com/taylorswift
EXTT0=
EXTT1=
EXTT2=
EXTT3=
EXTT4=
EXTT5=
EXTT6=
EXTT7=
PLAYORDER=
